<svg xmlns="http://www.w3.org/2000/svg" version="1.1" xmlns:xlink="http://www.w3.org/1999/xlink" xmlns:svgjs="http://svgjs.com/svgjs" width="1440" height="560" preserveAspectRatio="none" viewBox="0 0 1440 560"><g mask="url(&quot;#SvgjsMask1022&quot;)" fill="none"><rect width="1440" height="560" x="0" y="0" fill="rgba(130, 103, 103, 0.94)"></rect><path d="M1033.851,368.275C1086.348,366.127,1135.487,343.657,1163.783,299.386C1194.561,251.232,1208.963,189.253,1179.624,140.208C1150.848,92.104,1089.882,80.579,1033.851,82.183C981.151,83.692,930.737,104.055,901.851,148.16C869.821,197.065,854.035,260.691,884.101,310.828C913.571,359.971,976.597,370.617,1033.851,368.275" fill="rgba(47, 15, 99, 0.95)" class="triangle-float2"></path><path d="M398.775,38.679C414.204,38.541,427.223,27.481,433.924,13.582C439.836,1.319,436.451,-12.76,429.097,-24.217C422.392,-34.663,411.188,-41.208,398.775,-41.179C386.413,-41.151,375.463,-34.422,368.694,-24.078C361.104,-12.481,356.528,1.724,362.519,14.222C369.273,28.312,383.151,38.819,398.775,38.679" fill="rgba(47, 15, 99, 0.95)" class="triangle-float1"></path><path d="M1346.637,466.007C1364.455,466.619,1384.621,463.666,1393.191,448.032C1401.572,432.741,1391.286,415.511,1382.605,400.388C1373.868,385.167,1364.145,368.148,1346.637,366.931C1327.542,365.603,1309.773,377.784,1300.82,394.702C1292.379,410.652,1295.559,429.83,1305.314,445.012C1314.265,458.943,1330.088,465.438,1346.637,466.007" fill="rgba(47, 15, 99, 0.95)" class="triangle-float3"></path><path d="M947.095,170.197C969.604,170.774,989.22,156.309,1000.588,136.874C1012.079,117.229,1015.867,92.548,1003.8,73.252C992.284,54.837,968.813,51.126,947.095,51.335C925.85,51.539,903.05,56.029,892.25,74.325C881.315,92.85,887.47,115.576,898.152,134.248C908.925,153.08,925.406,169.641,947.095,170.197" fill="rgba(47, 15, 99, 0.95)" class="triangle-float1"></path><path d="M285.19,795.553C341.825,797.099,389.158,755.39,415.56,705.262C440.149,658.575,436.445,603.594,410.489,557.652C384.063,510.878,338.904,475.488,285.19,474.51C229.895,473.503,177.613,504.066,151.731,552.94C127.273,599.126,141.403,652.675,166.592,698.466C192.984,746.444,230.452,794.059,285.19,795.553" fill="rgba(47, 15, 99, 0.95)" class="triangle-float2"></path><path d="M208.5,92.839C224.54,92.715,242.093,89.526,249.926,75.528C257.638,61.745,250.421,45.644,242.58,31.934C234.662,18.088,224.419,4.079,208.5,3.093C191.147,2.018,174.977,12.18,166.229,27.205C157.426,42.325,156.476,61.468,165.949,76.177C174.789,89.903,192.174,92.965,208.5,92.839" fill="rgba(47, 15, 99, 0.95)" class="triangle-float3"></path><path d="M1309.364,493.014C1339.334,495.103,1369.97,481.261,1384.298,454.855C1398.117,429.388,1389.634,398.648,1373.699,374.448C1359.457,352.82,1335.25,341.763,1309.364,341.057C1281.971,340.31,1252.086,346.882,1238.648,370.764C1225.383,394.338,1237.031,422.119,1250.575,445.534C1264.093,468.904,1282.431,491.137,1309.364,493.014" fill="rgba(47, 15, 99, 0.95)" class="triangle-float3"></path><path d="M1151.805,345.174C1197.039,344.64,1240.276,322.832,1262.28,283.307C1283.746,244.75,1279.267,196.793,1254.891,160.007C1232.816,126.694,1191.767,116.862,1151.805,116.588C1111.217,116.309,1069.049,125.003,1046.238,158.575C1020.587,196.327,1014.24,246.247,1036.714,285.972C1059.482,326.217,1105.569,345.72,1151.805,345.174" fill="rgba(47, 15, 99, 0.95)" class="triangle-float1"></path><path d="M165.825,698.556C210.274,699.052,248.207,671.523,272.285,634.157C298.972,592.741,317.419,541.989,294.974,498.128C270.908,451.1,218.605,423.873,165.825,426.118C116.392,428.22,76.451,464.068,54.398,508.36C34.685,547.951,41.046,593.666,63.402,631.826C85.478,669.508,122.155,698.069,165.825,698.556" fill="rgba(47, 15, 99, 0.95)" class="triangle-float2"></path></g><defs><mask id="SvgjsMask1022"><rect width="1440" height="560" fill="#ffffff"></rect></mask><style>
            @keyframes float1 {
                0%{transform: translate(0, 0)}
                50%{transform: translate(-10px, 0)}
                100%{transform: translate(0, 0)}
            }

            .triangle-float1 {
                animation: float1 5s infinite;
            }

            @keyframes float2 {
                0%{transform: translate(0, 0)}
                50%{transform: translate(-5px, -5px)}
                100%{transform: translate(0, 0)}
            }

            .triangle-float2 {
                animation: float2 4s infinite;
            }

            @keyframes float3 {
                0%{transform: translate(0, 0)}
                50%{transform: translate(0, -10px)}
                100%{transform: translate(0, 0)}
            }

            .triangle-float3 {
                animation: float3 6s infinite;
            }
        </style></defs></svg>