<svg xmlns="http://www.w3.org/2000/svg" xmlns:xlink="http://www.w3.org/1999/xlink" id="visual" viewBox="0 0 1000 1000" width="1000" height="1000" version="1.1"><path d="M0 52L33.3 49.7C66.7 47.3 133.3 42.7 200 44.3C266.7 46 333.3 54 400 55.5C466.7 57 533.3 52 600 54.7C666.7 57.3 733.3 67.7 800 72.3C866.7 77 933.3 76 966.7 75.5L1000 75L1000 0L966.7 0C933.3 0 866.7 0 800 0C733.3 0 666.7 0 600 0C533.3 0 466.7 0 400 0C333.3 0 266.7 0 200 0C133.3 0 66.7 0 33.3 0L0 0Z" fill="#ff0066"/><path d="M0 23L33.3 23C66.7 23 133.3 23 200 23C266.7 23 333.3 23 400 24C466.7 25 533.3 27 600 31.7C666.7 36.3 733.3 43.7 800 46.3C866.7 49 933.3 47 966.7 46L1000 45L1000 0L966.7 0C933.3 0 866.7 0 800 0C733.3 0 666.7 0 600 0C533.3 0 466.7 0 400 0C333.3 0 266.7 0 200 0C133.3 0 66.7 0 33.3 0L0 0Z" fill="#c90857"/><path d="M0 17L33.3 16.3C66.7 15.7 133.3 14.3 200 14C266.7 13.7 333.3 14.3 400 17.7C466.7 21 533.3 27 600 28.5C666.7 30 733.3 27 800 23.2C866.7 19.3 933.3 14.7 966.7 12.3L1000 10L1000 0L966.7 0C933.3 0 866.7 0 800 0C733.3 0 666.7 0 600 0C533.3 0 466.7 0 400 0C333.3 0 266.7 0 200 0C133.3 0 66.7 0 33.3 0L0 0Z" fill="#950d46"/></svg>